<svg 
 xmlns="http://www.w3.org/2000/svg"
 xmlns:xlink="http://www.w3.org/1999/xlink"
 width="14px" height="16px">
<path fill-rule="evenodd"  fill="rgb(255, 150, 0)"
 d="M7.000,15.998 C3.140,15.998 -0.000,13.121 -0.000,9.584 C-0.000,6.523 2.375,3.875 5.649,3.289 C5.792,3.264 5.939,3.306 6.042,3.399 L6.869,4.158 C7.039,4.314 7.039,4.568 6.868,4.724 L6.001,5.518 C5.947,5.568 5.879,5.603 5.806,5.622 C3.867,6.110 2.510,7.739 2.510,9.584 C2.510,11.850 4.516,13.693 6.989,13.693 C9.461,13.693 11.462,11.850 11.462,9.584 L11.462,9.572 C11.462,9.351 11.680,9.179 11.922,9.179 L13.562,9.179 C13.804,9.179 14.000,9.351 14.000,9.572 L14.000,9.584 C14.000,13.121 10.859,15.998 7.000,15.998 ZM7.356,8.765 C7.274,8.840 7.163,8.883 7.047,8.883 C7.047,8.883 7.047,8.883 7.047,8.883 C6.931,8.883 6.820,8.840 6.737,8.765 L5.415,7.553 C5.244,7.397 5.244,7.142 5.415,6.986 L8.192,4.441 L5.415,1.895 C5.244,1.739 5.244,1.485 5.415,1.329 L6.737,0.116 C6.819,0.041 6.931,-0.002 7.047,-0.002 C7.163,-0.002 7.274,0.041 7.356,0.116 L11.766,4.157 C11.937,4.314 11.937,4.568 11.766,4.724 L7.356,8.765 Z"/>
</svg>