<svg 
 xmlns="http://www.w3.org/2000/svg"
 xmlns:xlink="http://www.w3.org/1999/xlink"
 width="20px" height="23px">
<path fill-rule="evenodd"  fill="rgb(255, 255, 255)"
 d="M20.000,20.000 L17.000,20.000 L17.000,23.000 L15.000,23.000 L15.000,20.000 L12.000,20.000 L12.000,18.000 L15.000,18.000 L15.000,15.000 L17.000,15.000 L17.000,18.000 L20.000,18.000 L20.000,20.000 ZM9.000,18.998 L0.607,18.998 C0.436,18.998 0.273,18.928 0.159,18.805 C0.043,18.682 -0.013,18.517 0.002,18.351 L1.000,6.000 C1.029,5.694 1.685,4.999 2.000,4.999 L5.000,4.999 L5.000,3.000 C5.000,1.035 6.490,-0.002 8.499,-0.002 C10.508,-0.002 12.000,1.035 12.000,3.000 L12.000,4.999 L15.000,4.999 C15.314,4.999 15.972,5.694 16.000,6.000 L16.488,12.049 C16.324,12.038 16.167,12.000 16.000,12.000 C12.135,12.000 9.001,15.133 9.000,18.998 ZM5.000,5.000 L5.000,7.000 L6.000,7.000 L6.000,5.000 L5.000,5.000 ZM11.000,3.000 C11.000,1.690 9.838,1.186 8.499,1.186 C7.160,1.186 6.000,1.690 6.000,3.000 L6.000,4.999 L11.000,4.999 L11.000,3.000 ZM12.000,5.000 L11.000,5.000 L11.000,7.000 L12.000,7.000 L12.000,5.000 Z"/>
</svg>