<svg 
 xmlns="http://www.w3.org/2000/svg"
 xmlns:xlink="http://www.w3.org/1999/xlink"
 width="18px" height="18px">
<path fill-rule="evenodd"  fill="rgb(122, 192, 12)"
 d="M16.793,4.500 L14.704,3.294 L13.499,1.206 L11.088,1.206 L9.000,0.000 L6.911,1.206 L4.500,1.206 L3.294,3.294 L1.206,4.500 L1.206,6.911 L0.001,8.999 L1.206,11.088 L1.206,13.499 L3.295,14.704 L4.500,16.792 L6.912,16.792 L9.000,17.998 L11.088,16.792 L13.499,16.792 L14.705,14.704 L16.793,13.498 L16.793,11.087 L17.999,8.999 L16.793,6.910 L16.793,4.500 L16.793,4.500 ZM8.187,12.682 C8.020,12.850 7.798,12.932 7.578,12.928 C7.358,12.932 7.137,12.850 6.969,12.682 L4.338,10.051 C4.008,9.721 4.008,9.186 4.338,8.856 L5.034,8.159 C5.364,7.830 5.899,7.830 6.229,8.159 L7.578,9.509 L11.770,5.317 C12.100,4.987 12.635,4.987 12.964,5.317 L13.661,6.014 C13.991,6.343 13.991,6.878 13.661,7.208 L8.187,12.682 Z"/>
</svg>